<svg viewBox="0 0 1600 896"
  xmlns="http://www.w3.org/2000/svg">
  <defs>
    <style>
      .letter { fill: #6B4E3D; }
      .diacritic { fill: #7d6a56; }
    </style>
  </defs>

  <!-- C -->
  <rect class="letter" width="148.6" height="36" x="89.6" y="338" />
  <rect class="letter" width="37.2" height="223" x="89.6" y="338" />
  <rect class="letter" width="148.6" height="36" x="89.6" y="525.1" />

  <!-- o -->
  <rect class="letter" width="148.6" height="36" x="254.3" y="393.5" />
  <rect class="letter" width="37.2" height="167.5" x="254.3" y="393.5" />
  <rect class="letter" width="147.3" height="39.1" x="255.7" y="522" />
  <rect class="letter" width="37.2" height="167.5" x="365.8" y="393.5" />
  <!-- diacritics -->
  <rect class="diacritic" width="42.3" height="39.8" x="275.6" y="343.8" />
  <rect class="diacritic" width="42.3" height="39.8" x="339.5" y="343.8" />


  <!-- d -->
  <rect class="letter" width="147.8" height="36" x="419.3" y="393.5" />
  <rect class="letter" width="37.2" height="167.5" x="419.3" y="393.5" />
  <rect class="letter" width="146.4" height="39.1" x="420.7" y="522" />
  <rect class="letter" width="37.2" height="225.3" x="530" y="335.8" />

  <!-- e -->
  <rect class="letter" width="119.7" height="29.9" x="583.1" y="393.5" />
  <rect class="letter" width="37.2" height="167.5" x="583.1" y="393.5" />
  <rect class="letter" width="119.7" height="36" x="583.1" y="525.1" />
  <rect class="letter" width="119.7" height="29.9" x="583.1" y="464.6" />
  <rect class="letter" width="36.4" height="98" x="666.5" y="395.8" />
  <!-- diacritics -->
  <rect class="diacritic" width="42.3" height="39.8" x="621.9" y="343.8" />

  <!-- C -->
  <rect class="letter" width="148.6" height="36" x="719.2" y="338" />
  <rect class="letter" width="37.2" height="223" x="719.1" y="338" />
  <rect class="letter" width="148.6" height="36" x="719.2" y="525.1" />

  <!-- a -->
  <rect class="letter" width="148.2" height="33.4" x="885.3" y="397" />
  <rect class="letter" width="37.2" height="160.7" x="996.4" y="397" />
  <rect class="letter" width="147.8" height="33.4" x="885.7" y="527.6" />
  <rect class="letter" width="35.4" height="109.8" x="883.9" y="451.3" />
  <rect class="letter" width="148.2" height="33.4" x="885.3" y="451.3" />
  <!-- diacritics -->
  <rect class="diacritic" width="112.9" height="24.8" x="902.3" y="351.3" />

  <!-- n -->
  <rect class="letter" width="37.2" height="167.5" x="1049.5" y="393.5" />
  <rect class="letter" width="148.6" height="36" x="1049.5" y="393.5" />
  <rect class="letter" width="37.2" height="167.5" x="1161" y="393.5" />

  <!-- o -->
  <rect class="letter" width="148.6" height="36" x="1214.1" y="393.5" />
  <rect class="letter" width="37.2" height="167.5" x="1214.1" y="393.5" />
  <rect class="letter" width="147.3" height="39.1" x="1215.5" y="522" />
  <rect class="letter" width="37.2" height="167.5" x="1325.6" y="393.5" />
  <!-- diacritics -->
  <rect class="diacritic" width="42.3" height="39.8" x="1235.4" y="343.8" />
  <rect class="diacritic" width="42.3" height="39.8" x="1299.3" y="343.8" />

  <!-- n -->
  <rect class="letter" width="37.2" height="167.5" x="1378.8" y="393.5" />
  <rect class="letter" width="148.6" height="36" x="1378.8" y="393.5" />
  <rect class="letter" width="37.2" height="167.5" x="1490.2" y="393.5" />
</svg>